<?xml version="1.0" encoding="utf-8"?>
<!-- Generator: Adobe Illustrator 26.3.1, SVG Export Plug-In . SVG Version: 6.00 Build 0)  -->
<svg version="1.1" id="Layer_1" xmlns="http://www.w3.org/2000/svg" xmlns:xlink="http://www.w3.org/1999/xlink" x="0px" y="0px"
	 viewBox="0 0 600 600" style="enable-background:new 0 0 600 600;" xml:space="preserve">
<style type="text/css">
	.st0{fill:#FFFFFF;}
	.st1{fill:none;}
	.st2{font-family:'Montserrat-Bold';}
	.st3{font-size:92.5137px;}
</style>
<g>
	<path class="st0" d="M90.9,293.18l8.79-1.46c0,0-5.86-39.55,32.96-65.91l-4.39-7.32C128.25,218.49,86.51,243.39,90.9,293.18z"/>
	<path class="st0" d="M392.68,390.28c-0.33,0-0.64-0.03-0.94-0.08c-0.3,0.04-0.59,0.06-0.9,0.06c-8.99,8.36-17.99,12.78-17.99,12.78
		H72.61c0,0-41.02-7.32-50.54-38.81c-9.52-31.49,14.65-50.53,14.65-50.53s16.84-14.65,36.98-17.21c0,0-10.25-44.67,32.22-78.36
		s93.01-10.99,93.01-10.99s23.8,9.89,39.18,35.52c0,0,32.96-16.84,66.64,0.73c33.69,17.58,33.69,57.12,33.69,57.12
		s22.08-7.62,40.58,0.46c0.17-0.27,0.36-0.54,0.59-0.81c3.42-3.99,6.76-7.99,9.6-12.42c0.24-0.38,0.51-0.71,0.8-1
		c-18.88-9.96-37.66-6.74-37.66-6.74c-21.24-82.76-107.65-57.86-107.65-57.86c0-3.66-8.79-10.99-8.79-10.99s-54.93-52-119.37-19.77
		c-64.45,32.22-60.42,92.64-60.42,92.64c-53.83,17.94-53.1,63.35-53.1,63.35c-1.46,65.18,67.93,72.5,67.93,72.5
		s288.72,0.73,298.24,0c9.52-0.73,19.77-5.86,19.77-5.86s13.61-7.98,24.3-23.43C406.41,390.43,399.54,390.29,392.68,390.28z"/>
	<rect x="210.99" y="302.68" class="st1" width="389.01" height="82.81"/>
	<text transform="matrix(1 0 0 1 212.0518 378.4053)" class="st0 st2 st3">MOVIES</text>
</g>
</svg>
