<?xml version="1.0" encoding="utf-8"?>
<!-- Generator: Adobe Illustrator 26.5.0, SVG Export Plug-In . SVG Version: 6.00 Build 0)  -->
<svg version="1.1" id="Layer_1" xmlns="http://www.w3.org/2000/svg" xmlns:xlink="http://www.w3.org/1999/xlink" x="0px" y="0px"
	 viewBox="0 0 600 600" style="enable-background:new 0 0 600 600;" xml:space="preserve">
<style type="text/css">
	.st0{fill:#4DA4FF;}
	.st1{fill:none;}
	.st2{font-family:'Montserrat-Bold';}
	.st3{font-size:92.5137px;}
</style>
<path class="st0" d="M90.9,293.2l8.8-1.5c0,0-5.9-39.6,33-65.9l-4.4-7.3C128.2,218.5,86.5,243.4,90.9,293.2z"/>
<path class="st0" d="M392.7,390.3c-0.3,0-0.6,0-0.9-0.1c-0.3,0-0.6,0.1-0.9,0.1c-9,8.4-18,12.8-18,12.8H72.6c0,0-41-7.3-50.5-38.8
	s14.7-50.5,14.7-50.5s16.8-14.6,37-17.2c0,0-10.2-44.7,32.2-78.4s93-11,93-11s23.8,9.9,39.2,35.5c0,0,33-16.8,66.6,0.7
	c33.7,17.6,33.7,57.1,33.7,57.1s22.1-7.6,40.6,0.5c0.2-0.3,0.4-0.5,0.6-0.8c3.4-4,6.8-8,9.6-12.4c0.2-0.4,0.5-0.7,0.8-1
	c-18.9-10-37.7-6.7-37.7-6.7c-21.2-82.8-107.6-57.9-107.6-57.9c0-3.7-8.8-11-8.8-11s-54.9-52-119.4-19.8
	C52.1,223.6,56.1,284,56.1,284C2.3,302,3,347.4,3,347.4C1.6,412.5,71,419.9,71,419.9s288.7,0.7,298.2,0S389,414,389,414
	s13.6-8,24.3-23.4C406.4,390.4,399.5,390.3,392.7,390.3z"/>
<rect x="211" y="302.7" class="st1" width="389" height="82.8"/>
<text transform="matrix(1 0 0 1 212.0518 378.4053)" class="st0 st2 st3">MOVIES</text>
</svg>
